<?xml version="1.0" encoding="UTF-8"?>
<svg id="Layer_1" data-name="Layer 1" xmlns="http://www.w3.org/2000/svg" viewBox="0 0 79.98 15.46">
  <defs>
    <style>
      .cls-1 {
        fill: #fff;
        stroke-width: 0px;
      }
    </style>
  </defs>
  <path class="cls-1" d="M15.72.38h.39l.11,6.41h-.35c-.24-.77-.46-1.39-.67-1.84-.21-.46-.43-.86-.68-1.21-.69-1.01-1.57-1.81-2.63-2.4-1.06-.59-2.15-.88-3.27-.88-.58,0-1.16.11-1.73.32s-1.04.5-1.39.85c-.59.59-1.01,1.4-1.28,2.43-.27,1.04-.4,2.37-.4,4.01,0,.49.02.97.06,1.46s.1.91.17,1.28.16.74.27,1.09.22.65.35.88c.22.37.47.69.75.97.28.28.61.52.99.72.38.21.78.36,1.21.45s.87.14,1.34.14c.6,0,1.2-.08,1.81-.23.6-.15,1.09-.35,1.46-.6.7-.48,1.05-1.13,1.05-1.94v-.76c0-1.8-.9-2.7-2.7-2.7h-1.29v-.39h10.16v.39h-.34c-.91,0-1.59.22-2.03.66s-.66,1.12-.66,2.04v3.49h-.39c-.32-.3-.6-.5-.83-.59-.24-.1-.53-.15-.89-.15-.31,0-.6.03-.87.09-.27.06-.64.19-1.11.39-.77.28-1.39.46-1.84.56s-1.01.14-1.67.14c-1.25,0-2.41-.19-3.49-.56-1.08-.38-2.02-.91-2.82-1.6-.8-.69-1.42-1.5-1.85-2.44-.44-.94-.66-1.94-.66-3.02,0-.65.09-1.3.26-1.93.17-.63.41-1.22.73-1.77.32-.55.72-1.06,1.19-1.55.55-.55,1.16-1.01,1.82-1.38.66-.38,1.36-.67,2.1-.87S7.56.02,8.3.02s1.46.09,2.16.28c.7.19,1.48.49,2.32.91.63.32,1.07.48,1.33.48s.52-.1.77-.31c.25-.21.53-.54.83-1h.01Z"/>
  <path class="cls-1" d="M28.38,0h.39l5.97,12.99c.19.4.41.74.64,1,.24.26.5.45.8.57s.65.18,1.05.18h.39v.41h-8.62v-.41h1.13c.56,0,.97-.08,1.23-.23s.39-.39.39-.71c0-.2-.05-.44-.15-.72s-.33-.8-.67-1.54c-.02-.04-.05-.11-.1-.21s-.09-.19-.14-.29l-.24-.54h-6.29l-.48,1.11c-.16.38-.23.75-.23,1.14,0,.33.09.65.27.97.18.32.42.56.71.72.19.11.36.19.52.23.15.04.37.07.65.08v.41h-6.05v-.41c.44-.05.79-.13,1.05-.23.26-.11.55-.28.87-.53.75-.58,1.48-1.68,2.2-3.28L28.38,0ZM27.25,3.48l-2.91,6.62h5.9s-2.99-6.62-2.99-6.62Z"/>
  <path class="cls-1" d="M55.22.38h.39l.11,6.41h-.35c-.24-.77-.46-1.39-.67-1.84-.21-.46-.43-.86-.68-1.21-.69-1.01-1.57-1.81-2.63-2.4-1.06-.59-2.15-.88-3.27-.88-.58,0-1.16.11-1.73.32s-1.04.5-1.39.85c-.59.59-1.01,1.4-1.28,2.43-.27,1.04-.4,2.37-.4,4.01,0,.49.02.97.06,1.46.04.48.1.91.17,1.28s.16.74.27,1.09c.11.36.22.65.35.88.22.37.47.69.75.97s.61.52.99.72c.38.21.78.36,1.21.45.43.1.87.14,1.34.14.6,0,1.2-.08,1.81-.23.6-.15,1.09-.35,1.46-.6.7-.48,1.05-1.13,1.05-1.94v-.76c0-1.8-.9-2.7-2.7-2.7h-1.29v-.39h10.16v.39h-.34c-.91,0-1.59.22-2.03.66s-.66,1.12-.66,2.04v3.49h-.39c-.32-.3-.6-.5-.83-.59-.24-.1-.53-.15-.89-.15-.31,0-.6.03-.87.09s-.64.19-1.11.39c-.77.28-1.38.46-1.84.56s-1.01.14-1.67.14c-1.25,0-2.41-.19-3.49-.56-1.08-.38-2.02-.91-2.82-1.6-.8-.69-1.42-1.5-1.85-2.44-.44-.94-.66-1.94-.66-3.02,0-.65.08-1.3.25-1.93s.41-1.22.73-1.77c.32-.55.72-1.06,1.19-1.55.55-.55,1.16-1.01,1.82-1.38.66-.38,1.36-.67,2.1-.87.74-.21,1.48-.31,2.22-.31s1.46.09,2.16.28c.7.19,1.48.49,2.32.91.63.32,1.07.48,1.33.48s.52-.1.77-.31.53-.54.83-1h0Z"/>
  <path class="cls-1" d="M59.48.3h10.3v.39h-1.18c-.91,0-1.58.22-2.03.66-.45.44-.67,1.12-.67,2.04v7.54c0,.86.2,1.59.6,2.21s.97,1.09,1.71,1.42,1.63.5,2.66.5c.9,0,1.74-.13,2.52-.39s1.4-.61,1.86-1.07c.84-.86,1.26-2.08,1.26-3.64v-5.32c0-1.7-.5-2.86-1.49-3.47-.28-.18-.58-.3-.89-.37s-.76-.11-1.35-.13v-.39h7.2v.39c-.45.04-.8.1-1.06.18s-.53.23-.81.43c-.4.3-.71.71-.92,1.22-.21.51-.32,1.1-.32,1.79v5.92c0,1.57-.43,2.78-1.29,3.61-.47.45-.98.78-1.52.98-1.13.42-2.48.64-4.05.64-1.15,0-2.2-.11-3.15-.34-.94-.23-1.72-.55-2.34-.97-1.16-.8-1.74-1.95-1.74-3.44V3.39c0-1.8-.9-2.7-2.7-2.7h-.61v-.39h0Z"/>
</svg>